<svg id="f4f07b3f-0078-493c-82f4-c4c1b0d4b11b" data-name="Layer 1" xmlns="http://www.w3.org/2000/svg" viewBox="0 0 120 120">
  <title>Untitled-1</title>
  <circle cx="60" cy="60" r="60" transform="translate(-0.62 0.62) rotate(-0.59)" style="fill: #8c0000"/>
  <path d="M60.59,117A57,57,0,1,1,117,59.41,57.09,57.09,0,0,1,60.59,117ZM59.42,3.87a56.13,56.13,0,1,0,56.71,55.55A56.19,56.19,0,0,0,59.42,3.87Z" style="fill: #fff"/>
  <path d="M28.17,48.16l20.62-.21L48.55,24.89l22-.23,0.24,23.06,20.76-.22L91.83,72l-20.76.22L71.31,95.1l-22,.23L49,72.42l-20.62.21Z" style="fill: #fff"/>
</svg>
